<svg width="8" height="9" viewBox="0 0 8 9" fill="none" xmlns="http://www.w3.org/2000/svg">
<path d="M0 0.643874C0 0.0962263 0.658063 -0.18981 1.0832 0.140578L1.13926 0.189429L7.80454 3.88989C7.91946 4.00057 7.98849 4.14783 7.99868 4.30405C8.00888 4.46026 7.95955 4.61469 7.85994 4.73836L7.80454 4.79878L1.13926 8.81167L1.07653 8.86502L1.02514 8.89973L0.961066 8.93444L0.937039 8.94536L0.892323 8.96272L0.820243 8.98329L0.78487 8.98971L0.744826 8.99614L0.706784 8.99871L0.667407 9L0.62803 8.99871L0.589321 8.9955L0.549276 8.98971L0.514571 8.98329L0.442491 8.96272L0.397774 8.94536L0.309677 8.90037L0.24961 8.85859L0.19555 8.81167L0.140155 8.75124L0.104116 8.70175L0.0680757 8.64004L0.0567296 8.6169L0.0387093 8.57384L0.0173526 8.50442L0.0106784 8.47035L0.00400415 8.43178L0.00133472 8.39514L0 0.643874Z" fill="#7C7C7C"/>
</svg>
