<svg width="159" height="32" viewBox="0 0 159 32" fill="none" xmlns="http://www.w3.org/2000/svg">
<path d="M41.389 10.715V14.39H46.324V16.721H41.389V20.606H46.954V23H38.449V8.321H46.954V10.715H41.389ZM58.5718 14.264V16.742H49.6678V14.264H58.5718ZM71.8439 8.342V10.715H67.9379V23H64.9979V10.715H61.0919V8.342H71.8439ZM75.48 9.98C74.962 9.98 74.528 9.819 74.178 9.497C73.842 9.161 73.674 8.748 73.674 8.258C73.674 7.768 73.842 7.362 74.178 7.04C74.528 6.704 74.962 6.536 75.48 6.536C75.998 6.536 76.425 6.704 76.761 7.04C77.111 7.362 77.286 7.768 77.286 8.258C77.286 8.748 77.111 9.161 76.761 9.497C76.425 9.819 75.998 9.98 75.48 9.98ZM76.929 11.366V23H73.989V11.366H76.929ZM79.0778 17.183C79.0778 15.979 79.3228 14.929 79.8128 14.033C80.3028 13.123 80.9818 12.423 81.8498 11.933C82.7178 11.429 83.7118 11.177 84.8318 11.177C86.2738 11.177 87.4638 11.541 88.4018 12.269C89.3538 12.983 89.9908 13.991 90.3128 15.293H87.1418C86.9738 14.789 86.6868 14.397 86.2808 14.117C85.8888 13.823 85.3988 13.676 84.8108 13.676C83.9708 13.676 83.3058 13.984 82.8158 14.6C82.3258 15.202 82.0808 16.063 82.0808 17.183C82.0808 18.289 82.3258 19.15 82.8158 19.766C83.3058 20.368 83.9708 20.669 84.8108 20.669C86.0008 20.669 86.7778 20.137 87.1418 19.073H90.3128C89.9908 20.333 89.3538 21.334 88.4018 22.076C87.4498 22.818 86.2598 23.189 84.8318 23.189C83.7118 23.189 82.7178 22.944 81.8498 22.454C80.9818 21.95 80.3028 21.25 79.8128 20.354C79.3228 19.444 79.0778 18.387 79.0778 17.183ZM99.3546 23L95.4066 18.044V23H92.4666V7.46H95.4066V16.301L99.3126 11.366H103.135L98.0106 17.204L103.177 23H99.3546ZM115.545 16.931C115.545 17.351 115.517 17.729 115.461 18.065H106.956C107.026 18.905 107.32 19.563 107.838 20.039C108.356 20.515 108.993 20.753 109.749 20.753C110.841 20.753 111.618 20.284 112.08 19.346H115.251C114.915 20.466 114.271 21.39 113.319 22.118C112.367 22.832 111.198 23.189 109.812 23.189C108.692 23.189 107.684 22.944 106.788 22.454C105.906 21.95 105.213 21.243 104.709 20.333C104.219 19.423 103.974 18.373 103.974 17.183C103.974 15.979 104.219 14.922 104.709 14.012C105.199 13.102 105.885 12.402 106.767 11.912C107.649 11.422 108.664 11.177 109.812 11.177C110.918 11.177 111.905 11.415 112.773 11.891C113.655 12.367 114.334 13.046 114.81 13.928C115.3 14.796 115.545 15.797 115.545 16.931ZM112.5 16.091C112.486 15.335 112.213 14.733 111.681 14.285C111.149 13.823 110.498 13.592 109.728 13.592C109 13.592 108.384 13.816 107.88 14.264C107.39 14.698 107.089 15.307 106.977 16.091H112.5ZM121.114 13.781V19.409C121.114 19.801 121.205 20.088 121.387 20.27C121.583 20.438 121.905 20.522 122.353 20.522H123.718V23H121.87C119.392 23 118.153 21.796 118.153 19.388V13.781H116.767V11.366H118.153V8.489H121.114V11.366H123.718V13.781H121.114ZM127.324 9.98C126.806 9.98 126.372 9.819 126.022 9.497C125.686 9.161 125.518 8.748 125.518 8.258C125.518 7.768 125.686 7.362 126.022 7.04C126.372 6.704 126.806 6.536 127.324 6.536C127.842 6.536 128.269 6.704 128.605 7.04C128.955 7.362 129.13 7.768 129.13 8.258C129.13 8.748 128.955 9.161 128.605 9.497C128.269 9.819 127.842 9.98 127.324 9.98ZM128.773 11.366V23H125.833V11.366H128.773ZM138.125 11.198C139.511 11.198 140.631 11.639 141.485 12.521C142.339 13.389 142.766 14.607 142.766 16.175V23H139.826V16.574C139.826 15.65 139.595 14.943 139.133 14.453C138.671 13.949 138.041 13.697 137.243 13.697C136.431 13.697 135.787 13.949 135.311 14.453C134.849 14.943 134.618 15.65 134.618 16.574V23H131.678V11.366H134.618V12.815C135.01 12.311 135.507 11.919 136.109 11.639C136.725 11.345 137.397 11.198 138.125 11.198ZM150.118 11.177C150.986 11.177 151.749 11.352 152.407 11.702C153.065 12.038 153.583 12.479 153.961 13.025V11.366H156.922V23.084C156.922 24.162 156.705 25.121 156.271 25.961C155.837 26.815 155.186 27.487 154.318 27.977C153.45 28.481 152.4 28.733 151.168 28.733C149.516 28.733 148.158 28.348 147.094 27.578C146.044 26.808 145.449 25.758 145.309 24.428H148.228C148.382 24.96 148.711 25.38 149.215 25.688C149.733 26.01 150.356 26.171 151.084 26.171C151.938 26.171 152.631 25.912 153.163 25.394C153.695 24.89 153.961 24.12 153.961 23.084V21.278C153.583 21.824 153.058 22.279 152.386 22.643C151.728 23.007 150.972 23.189 150.118 23.189C149.138 23.189 148.242 22.937 147.43 22.433C146.618 21.929 145.974 21.222 145.498 20.312C145.036 19.388 144.805 18.331 144.805 17.141C144.805 15.965 145.036 14.922 145.498 14.012C145.974 13.102 146.611 12.402 147.409 11.912C148.221 11.422 149.124 11.177 150.118 11.177ZM153.961 17.183C153.961 16.469 153.821 15.86 153.541 15.356C153.261 14.838 152.883 14.446 152.407 14.18C151.931 13.9 151.42 13.76 150.874 13.76C150.328 13.76 149.824 13.893 149.362 14.159C148.9 14.425 148.522 14.817 148.228 15.335C147.948 15.839 147.808 16.441 147.808 17.141C147.808 17.841 147.948 18.457 148.228 18.989C148.522 19.507 148.9 19.906 149.362 20.186C149.838 20.466 150.342 20.606 150.874 20.606C151.42 20.606 151.931 20.473 152.407 20.207C152.883 19.927 153.261 19.535 153.541 19.031C153.821 18.513 153.961 17.897 153.961 17.183Z" fill="black"/>
<g clip-path="url(#clip0_225_2285)">
<path d="M17.5 7.83337V10.1667" stroke="#1A73E8" stroke-width="2" stroke-linecap="round" stroke-linejoin="round"/>
<path d="M17.5 14.8334V17.1667" stroke="#1A73E8" stroke-width="2" stroke-linecap="round" stroke-linejoin="round"/>
<path d="M17.5 21.8334V24.1667" stroke="#1A73E8" stroke-width="2" stroke-linecap="round" stroke-linejoin="round"/>
<path d="M5.83333 7.83337H22.1667C22.7855 7.83337 23.379 8.07921 23.8166 8.51679C24.2542 8.95438 24.5 9.54787 24.5 10.1667V13.6667C23.8812 13.6667 23.2877 13.9125 22.8501 14.3501C22.4125 14.7877 22.1667 15.3812 22.1667 16C22.1667 16.6189 22.4125 17.2124 22.8501 17.65C23.2877 18.0875 23.8812 18.3334 24.5 18.3334V21.8334C24.5 22.4522 24.2542 23.0457 23.8166 23.4833C23.379 23.9209 22.7855 24.1667 22.1667 24.1667H5.83333C5.21449 24.1667 4.621 23.9209 4.18342 23.4833C3.74583 23.0457 3.5 22.4522 3.5 21.8334V18.3334C4.11884 18.3334 4.71233 18.0875 5.14992 17.65C5.5875 17.2124 5.83333 16.6189 5.83333 16C5.83333 15.3812 5.5875 14.7877 5.14992 14.3501C4.71233 13.9125 4.11884 13.6667 3.5 13.6667V10.1667C3.5 9.54787 3.74583 8.95438 4.18342 8.51679C4.621 8.07921 5.21449 7.83337 5.83333 7.83337Z" stroke="#1A73E8" stroke-width="2" stroke-linecap="round" stroke-linejoin="round"/>
</g>
<defs>
<clipPath id="clip0_225_2285">
<rect width="28" height="28" fill="white" transform="translate(0 2)"/>
</clipPath>
</defs>
</svg>
