<svg width="38" height="38" viewBox="0 0 38 38" fill="none" xmlns="http://www.w3.org/2000/svg">
<g clip-path="url(#clip0_34_44)">
<path d="M4.75 30.0833H4.76583" stroke="black" stroke-width="2" stroke-linecap="round" stroke-linejoin="round"/>
<path d="M11.0833 30.0833C11.0833 28.4036 10.4161 26.7927 9.22834 25.605C8.04061 24.4173 6.4297 23.75 4.75 23.75" stroke="black" stroke-width="2" stroke-linecap="round" stroke-linejoin="round"/>
<path d="M17.4167 30.0833C17.4167 26.7239 16.0821 23.5021 13.7067 21.1266C11.3312 18.7512 8.10941 17.4167 4.75 17.4167" stroke="black" stroke-width="2" stroke-linecap="round" stroke-linejoin="round"/>
<path d="M23.75 30.0833H28.5C29.7598 30.0833 30.9679 29.5829 31.8587 28.6921C32.7495 27.8013 33.25 26.5931 33.25 25.3333V12.6667C33.25 11.4069 32.7495 10.1987 31.8587 9.3079C30.9679 8.4171 29.7598 7.91666 28.5 7.91666H9.49998C8.52541 7.92591 7.57727 8.23472 6.78419 8.80121C5.99111 9.36769 5.39148 10.1644 5.06665 11.0833" stroke="black" stroke-width="2" stroke-linecap="round" stroke-linejoin="round"/>
</g>
<defs>
<clipPath id="clip0_34_44">
<rect width="38" height="38" fill="white"/>
</clipPath>
</defs>
</svg>
