<svg width="42" height="42" viewBox="0 0 42 42" fill="none" xmlns="http://www.w3.org/2000/svg">
<g clip-path="url(#clip0_34_37)">
<path d="M15.75 8.75H12.25C11.3217 8.75 10.4315 9.11875 9.77513 9.77513C9.11875 10.4315 8.75 11.3217 8.75 12.25V33.25C8.75 34.1783 9.11875 35.0685 9.77513 35.7249C10.4315 36.3813 11.3217 36.75 12.25 36.75H29.75C30.6783 36.75 31.5685 36.3813 32.2249 35.7249C32.8812 35.0685 33.25 34.1783 33.25 33.25V12.25C33.25 11.3217 32.8812 10.4315 32.2249 9.77513C31.5685 9.11875 30.6783 8.75 29.75 8.75H26.25" stroke="black" stroke-width="2" stroke-linecap="round" stroke-linejoin="round"/>
<path d="M15.75 8.75C15.75 7.82174 16.1187 6.9315 16.7751 6.27513C17.4315 5.61875 18.3217 5.25 19.25 5.25H22.75C23.6783 5.25 24.5685 5.61875 25.2249 6.27513C25.8813 6.9315 26.25 7.82174 26.25 8.75C26.25 9.67826 25.8813 10.5685 25.2249 11.2249C24.5685 11.8813 23.6783 12.25 22.75 12.25H19.25C18.3217 12.25 17.4315 11.8813 16.7751 11.2249C16.1187 10.5685 15.75 9.67826 15.75 8.75Z" stroke="black" stroke-width="2" stroke-linecap="round" stroke-linejoin="round"/>
<path d="M24.5 19.25H20.125C19.4288 19.25 18.7611 19.5266 18.2688 20.0188C17.7766 20.5111 17.5 21.1788 17.5 21.875C17.5 22.5712 17.7766 23.2389 18.2688 23.7312C18.7611 24.2234 19.4288 24.5 20.125 24.5H21.875C22.5712 24.5 23.2389 24.7766 23.7312 25.2688C24.2234 25.7611 24.5 26.4288 24.5 27.125C24.5 27.8212 24.2234 28.4889 23.7312 28.9812C23.2389 29.4734 22.5712 29.75 21.875 29.75H17.5" stroke="black" stroke-width="2" stroke-linecap="round" stroke-linejoin="round"/>
<path d="M21 29.75V31.5M21 17.5V19.25" stroke="black" stroke-width="2" stroke-linecap="round" stroke-linejoin="round"/>
</g>
<defs>
<clipPath id="clip0_34_37">
<rect width="42" height="42" fill="white"/>
</clipPath>
</defs>
</svg>
